<svg width="840" height="300" viewBox="0 0 840 300" xmlns="http://www.w3.org/2000/svg" font-family="'Segoe UI',Ubuntu,Helvetica,Arial,sans-serif">
  <defs><linearGradient id="ag" x1="0" y1="0" x2="0" y2="1">
    <stop offset="0" stop-color="#ff9e64" stop-opacity="0.38"/>
    <stop offset="1" stop-color="#ff9e64" stop-opacity="0"/></linearGradient></defs>
  <style>
    .blink{animation:blink 1.6s ease-in-out infinite}
    @keyframes blink{0%,100%{opacity:.35}50%{opacity:1}}
    .draw{stroke-dasharray:4000;animation:dr 2.2s ease}
    @keyframes dr{from{stroke-dashoffset:4000}}
    .pk{animation:pp 1.6s ease-in-out infinite}
    @keyframes pp{0%,100%{r:3.5}50%{r:5.5}}
  </style>
  <rect x="1" y="1" width="838" height="298" rx="15" fill="#161a26" stroke="#232842" stroke-width="1.5"/>
  <circle class="blink" cx="44" cy="44" r="5" fill="#7aa2f7"/>
  <text x="60" y="49" fill="#7aa2f7" font-size="17" font-weight="700">Contribution Activity</text>
  
  <g transform="translate(40 72)">
    <rect width="240" height="56" rx="11" fill="#10121b" stroke="#232842"/>
    <rect width="4" height="56" rx="2" fill="#7aa2f7"/>
    <text x="18" y="24" fill="#787c99" font-size="11">Coding since</text>
    <text x="18" y="45" fill="#c0caf5" font-size="19" font-weight="700">2022</text>
  </g>
  <g transform="translate(296 72)">
    <rect width="240" height="56" rx="11" fill="#10121b" stroke="#232842"/>
    <rect width="4" height="56" rx="2" fill="#bb9af7"/>
    <text x="18" y="24" fill="#787c99" font-size="11">All-time contributions</text>
    <text x="18" y="45" fill="#c0caf5" font-size="19" font-weight="700">1,766</text>
  </g>
  <g transform="translate(552 72)">
    <rect width="240" height="56" rx="11" fill="#10121b" stroke="#232842"/>
    <rect width="4" height="56" rx="2" fill="#ff9e64"/>
    <text x="18" y="24" fill="#787c99" font-size="11">Most active day</text>
    <text x="18" y="45" fill="#c0caf5" font-size="19" font-weight="700">Wed</text>
  </g>
  <text x="40" y="158" fill="#787c99" font-size="12">Weekly contributions · last 12 months</text>
  <polygon points="44,260.0 44.0,257.6 57.1,256.1 70.2,253.1 83.2,255.1 96.3,256.1 109.4,251.0 122.5,253.1 135.5,257.4 148.6,257.9 161.7,254.2 174.8,256.3 187.8,254.4 200.9,253.8 214.0,255.9 227.1,258.1 240.2,256.8 253.2,255.7 266.3,254.2 279.4,253.3 292.5,255.5 305.5,254.6 318.6,255.1 331.7,248.4 344.8,252.0 357.8,253.1 370.9,257.0 384.0,256.8 397.1,256.8 410.2,259.8 423.2,260.0 436.3,260.0 449.4,258.7 462.5,255.1 475.5,258.9 488.6,259.4 501.7,259.8 514.8,260.0 527.8,254.6 540.9,256.8 554.0,251.8 567.1,257.6 580.2,253.8 593.2,253.3 606.3,257.0 619.4,251.0 632.5,258.3 645.5,260.0 658.6,259.1 671.7,254.6 684.8,241.1 697.8,245.8 710.9,182.0 724.0,249.9 724.0,260.0" fill="url(#ag)"/>
  <polyline class="draw" points="44.0,257.6 57.1,256.1 70.2,253.1 83.2,255.1 96.3,256.1 109.4,251.0 122.5,253.1 135.5,257.4 148.6,257.9 161.7,254.2 174.8,256.3 187.8,254.4 200.9,253.8 214.0,255.9 227.1,258.1 240.2,256.8 253.2,255.7 266.3,254.2 279.4,253.3 292.5,255.5 305.5,254.6 318.6,255.1 331.7,248.4 344.8,252.0 357.8,253.1 370.9,257.0 384.0,256.8 397.1,256.8 410.2,259.8 423.2,260.0 436.3,260.0 449.4,258.7 462.5,255.1 475.5,258.9 488.6,259.4 501.7,259.8 514.8,260.0 527.8,254.6 540.9,256.8 554.0,251.8 567.1,257.6 580.2,253.8 593.2,253.3 606.3,257.0 619.4,251.0 632.5,258.3 645.5,260.0 658.6,259.1 671.7,254.6 684.8,241.1 697.8,245.8 710.9,182.0 724.0,249.9" fill="none" stroke="#ff9e64" stroke-width="2.5" stroke-linejoin="round"/>
  <circle class="pk" cx="710.9" cy="182.0" r="4" fill="#ff9e64"/>
  <text x="711" y="170" text-anchor="middle" fill="#c0caf5" font-size="11" font-weight="700">363</text>
</svg>