<svg width="840" height="300" viewBox="0 0 840 300" xmlns="http://www.w3.org/2000/svg" font-family="'Segoe UI',Ubuntu,Helvetica,Arial,sans-serif">
  <defs><linearGradient id="ag" x1="0" y1="0" x2="0" y2="1">
    <stop offset="0" stop-color="#ff9e64" stop-opacity="0.38"/>
    <stop offset="1" stop-color="#ff9e64" stop-opacity="0"/></linearGradient></defs>
  <style>
    .blink{animation:blink 1.6s ease-in-out infinite}
    @keyframes blink{0%,100%{opacity:.35}50%{opacity:1}}
    .draw{stroke-dasharray:4000;animation:dr 2.2s ease}
    @keyframes dr{from{stroke-dashoffset:4000}}
    .pk{animation:pp 1.6s ease-in-out infinite}
    @keyframes pp{0%,100%{r:3.5}50%{r:5.5}}
  </style>
  <rect x="1" y="1" width="838" height="298" rx="15" fill="#161a26" stroke="#232842" stroke-width="1.5"/>
  <circle class="blink" cx="44" cy="44" r="5" fill="#7aa2f7"/>
  <text x="60" y="49" fill="#7aa2f7" font-size="17" font-weight="700">Contribution Activity</text>
  
  <g transform="translate(40 72)">
    <rect width="240" height="56" rx="11" fill="#10121b" stroke="#232842"/>
    <rect width="4" height="56" rx="2" fill="#7aa2f7"/>
    <text x="18" y="24" fill="#787c99" font-size="11">Coding since</text>
    <text x="18" y="45" fill="#c0caf5" font-size="19" font-weight="700">2022</text>
  </g>
  <g transform="translate(296 72)">
    <rect width="240" height="56" rx="11" fill="#10121b" stroke="#232842"/>
    <rect width="4" height="56" rx="2" fill="#bb9af7"/>
    <text x="18" y="24" fill="#787c99" font-size="11">All-time contributions</text>
    <text x="18" y="45" fill="#c0caf5" font-size="19" font-weight="700">1,803</text>
  </g>
  <g transform="translate(552 72)">
    <rect width="240" height="56" rx="11" fill="#10121b" stroke="#232842"/>
    <rect width="4" height="56" rx="2" fill="#ff9e64"/>
    <text x="18" y="24" fill="#787c99" font-size="11">Most active day</text>
    <text x="18" y="45" fill="#c0caf5" font-size="19" font-weight="700">Wed</text>
  </g>
  <text x="40" y="158" fill="#787c99" font-size="12">Weekly contributions · last 12 months</text>
  <polygon points="44,260.0 44.0,256.1 57.1,253.1 70.2,255.1 83.2,256.1 96.3,251.0 109.4,253.1 122.5,257.4 135.5,257.9 148.6,254.2 161.7,256.3 174.8,254.4 187.8,253.8 200.9,255.9 214.0,258.1 227.1,256.8 240.2,255.7 253.2,254.2 266.3,253.3 279.4,255.5 292.5,254.6 305.5,255.1 318.6,248.4 331.7,252.0 344.8,253.1 357.8,257.0 370.9,256.8 384.0,256.8 397.1,259.8 410.2,260.0 423.2,260.0 436.3,258.7 449.4,255.1 462.5,258.9 475.5,259.4 488.6,259.8 501.7,260.0 514.8,254.6 527.8,256.8 540.9,251.8 554.0,257.6 567.1,253.8 580.2,253.3 593.2,257.0 606.3,251.0 619.4,258.3 632.5,260.0 645.5,259.1 658.6,254.6 671.7,241.1 684.8,245.8 697.8,182.0 710.9,246.5 724.0,255.5 724.0,260.0" fill="url(#ag)"/>
  <polyline class="draw" points="44.0,256.1 57.1,253.1 70.2,255.1 83.2,256.1 96.3,251.0 109.4,253.1 122.5,257.4 135.5,257.9 148.6,254.2 161.7,256.3 174.8,254.4 187.8,253.8 200.9,255.9 214.0,258.1 227.1,256.8 240.2,255.7 253.2,254.2 266.3,253.3 279.4,255.5 292.5,254.6 305.5,255.1 318.6,248.4 331.7,252.0 344.8,253.1 357.8,257.0 370.9,256.8 384.0,256.8 397.1,259.8 410.2,260.0 423.2,260.0 436.3,258.7 449.4,255.1 462.5,258.9 475.5,259.4 488.6,259.8 501.7,260.0 514.8,254.6 527.8,256.8 540.9,251.8 554.0,257.6 567.1,253.8 580.2,253.3 593.2,257.0 606.3,251.0 619.4,258.3 632.5,260.0 645.5,259.1 658.6,254.6 671.7,241.1 684.8,245.8 697.8,182.0 710.9,246.5 724.0,255.5" fill="none" stroke="#ff9e64" stroke-width="2.5" stroke-linejoin="round"/>
  <circle class="pk" cx="697.8" cy="182.0" r="4" fill="#ff9e64"/>
  <text x="698" y="170" text-anchor="middle" fill="#c0caf5" font-size="11" font-weight="700">363</text>
</svg>