<svg width="840" height="300" viewBox="0 0 840 300" xmlns="http://www.w3.org/2000/svg" font-family="'Segoe UI',Ubuntu,Helvetica,Arial,sans-serif">
  <defs><linearGradient id="ag" x1="0" y1="0" x2="0" y2="1">
    <stop offset="0" stop-color="#ff9e64" stop-opacity="0.38"/>
    <stop offset="1" stop-color="#ff9e64" stop-opacity="0"/></linearGradient></defs>
  <style>
    .blink{animation:blink 1.6s ease-in-out infinite}
    @keyframes blink{0%,100%{opacity:.35}50%{opacity:1}}
    .draw{stroke-dasharray:4000;animation:dr 2.2s ease}
    @keyframes dr{from{stroke-dashoffset:4000}}
    .pk{animation:pp 1.6s ease-in-out infinite}
    @keyframes pp{0%,100%{r:3.5}50%{r:5.5}}
  </style>
  <rect x="1" y="1" width="838" height="298" rx="15" fill="#161a26" stroke="#232842" stroke-width="1.5"/>
  <circle class="blink" cx="44" cy="44" r="5" fill="#7aa2f7"/>
  <text x="60" y="49" fill="#7aa2f7" font-size="17" font-weight="700">Contribution Activity</text>
  
  <g transform="translate(40 72)">
    <rect width="240" height="56" rx="11" fill="#10121b" stroke="#232842"/>
    <rect width="4" height="56" rx="2" fill="#7aa2f7"/>
    <text x="18" y="24" fill="#787c99" font-size="11">Coding since</text>
    <text x="18" y="45" fill="#c0caf5" font-size="19" font-weight="700">2022</text>
  </g>
  <g transform="translate(296 72)">
    <rect width="240" height="56" rx="11" fill="#10121b" stroke="#232842"/>
    <rect width="4" height="56" rx="2" fill="#bb9af7"/>
    <text x="18" y="24" fill="#787c99" font-size="11">All-time contributions</text>
    <text x="18" y="45" fill="#c0caf5" font-size="19" font-weight="700">1,607</text>
  </g>
  <g transform="translate(552 72)">
    <rect width="240" height="56" rx="11" fill="#10121b" stroke="#232842"/>
    <rect width="4" height="56" rx="2" fill="#ff9e64"/>
    <text x="18" y="24" fill="#787c99" font-size="11">Most active day</text>
    <text x="18" y="45" fill="#c0caf5" font-size="19" font-weight="700">Wed</text>
  </g>
  <text x="40" y="158" fill="#787c99" font-size="12">Weekly contributions · last 12 months</text>
  <polygon points="44,260.0 44.0,256.6 57.1,256.6 70.2,254.4 83.2,250.0 96.3,252.8 109.4,254.4 122.5,246.9 135.5,250.0 148.6,256.3 161.7,256.9 174.8,251.6 187.8,254.7 200.9,251.9 214.0,251.0 227.1,254.1 240.2,257.2 253.2,255.3 266.3,253.8 279.4,251.6 292.5,250.3 305.5,253.4 318.6,252.2 331.7,252.8 344.8,243.2 357.8,248.5 370.9,250.0 384.0,255.6 397.1,255.3 410.2,255.3 423.2,259.7 436.3,260.0 449.4,260.0 462.5,258.1 475.5,252.8 488.6,258.4 501.7,259.1 514.8,259.7 527.8,260.0 540.9,252.2 554.0,255.3 567.1,248.1 580.2,256.6 593.2,251.0 606.3,250.3 619.4,255.6 632.5,246.9 645.5,257.5 658.6,260.0 671.7,258.8 684.8,252.2 697.8,232.5 710.9,239.1 724.0,182.0 724.0,260.0" fill="url(#ag)"/>
  <polyline class="draw" points="44.0,256.6 57.1,256.6 70.2,254.4 83.2,250.0 96.3,252.8 109.4,254.4 122.5,246.9 135.5,250.0 148.6,256.3 161.7,256.9 174.8,251.6 187.8,254.7 200.9,251.9 214.0,251.0 227.1,254.1 240.2,257.2 253.2,255.3 266.3,253.8 279.4,251.6 292.5,250.3 305.5,253.4 318.6,252.2 331.7,252.8 344.8,243.2 357.8,248.5 370.9,250.0 384.0,255.6 397.1,255.3 410.2,255.3 423.2,259.7 436.3,260.0 449.4,260.0 462.5,258.1 475.5,252.8 488.6,258.4 501.7,259.1 514.8,259.7 527.8,260.0 540.9,252.2 554.0,255.3 567.1,248.1 580.2,256.6 593.2,251.0 606.3,250.3 619.4,255.6 632.5,246.9 645.5,257.5 658.6,260.0 671.7,258.8 684.8,252.2 697.8,232.5 710.9,239.1 724.0,182.0" fill="none" stroke="#ff9e64" stroke-width="2.5" stroke-linejoin="round"/>
  <circle class="pk" cx="724.0" cy="182.0" r="4" fill="#ff9e64"/>
  <text x="724" y="170" text-anchor="middle" fill="#c0caf5" font-size="11" font-weight="700">250</text>
</svg>