<svg width="840" height="300" viewBox="0 0 840 300" xmlns="http://www.w3.org/2000/svg" font-family="'Segoe UI',Ubuntu,Helvetica,Arial,sans-serif">
  <defs><linearGradient id="ag" x1="0" y1="0" x2="0" y2="1">
    <stop offset="0" stop-color="#ff9e64" stop-opacity="0.38"/>
    <stop offset="1" stop-color="#ff9e64" stop-opacity="0"/></linearGradient></defs>
  <style>
    .blink{animation:blink 1.6s ease-in-out infinite}
    @keyframes blink{0%,100%{opacity:.35}50%{opacity:1}}
    .draw{stroke-dasharray:4000;animation:dr 2.2s ease}
    @keyframes dr{from{stroke-dashoffset:4000}}
    .pk{animation:pp 1.6s ease-in-out infinite}
    @keyframes pp{0%,100%{r:3.5}50%{r:5.5}}
  </style>
  <rect x="1" y="1" width="838" height="298" rx="15" fill="#161a26" stroke="#232842" stroke-width="1.5"/>
  <circle class="blink" cx="44" cy="44" r="5" fill="#7aa2f7"/>
  <text x="60" y="49" fill="#7aa2f7" font-size="17" font-weight="700">Contribution Activity</text>
  
  <g transform="translate(40 72)">
    <rect width="240" height="56" rx="11" fill="#10121b" stroke="#232842"/>
    <rect width="4" height="56" rx="2" fill="#7aa2f7"/>
    <text x="18" y="24" fill="#787c99" font-size="11">Coding since</text>
    <text x="18" y="45" fill="#c0caf5" font-size="19" font-weight="700">2022</text>
  </g>
  <g transform="translate(296 72)">
    <rect width="240" height="56" rx="11" fill="#10121b" stroke="#232842"/>
    <rect width="4" height="56" rx="2" fill="#bb9af7"/>
    <text x="18" y="24" fill="#787c99" font-size="11">All-time contributions</text>
    <text x="18" y="45" fill="#c0caf5" font-size="19" font-weight="700">1,448</text>
  </g>
  <g transform="translate(552 72)">
    <rect width="240" height="56" rx="11" fill="#10121b" stroke="#232842"/>
    <rect width="4" height="56" rx="2" fill="#ff9e64"/>
    <text x="18" y="24" fill="#787c99" font-size="11">Most active day</text>
    <text x="18" y="45" fill="#c0caf5" font-size="19" font-weight="700">Mon</text>
  </g>
  <text x="40" y="158" fill="#787c99" font-size="12">Weekly contributions · last 12 months</text>
  <polygon points="44,260.0 44.0,250.4 57.1,250.4 70.2,244.2 83.2,232.0 96.3,239.8 109.4,244.2 122.5,223.2 135.5,232.0 148.6,249.5 161.7,251.2 174.8,236.3 187.8,245.1 200.9,237.2 214.0,234.6 227.1,243.3 240.2,252.1 253.2,246.9 266.3,242.5 279.4,236.3 292.5,232.8 305.5,241.6 318.6,238.1 331.7,239.8 344.8,212.7 357.8,227.6 370.9,232.0 384.0,247.7 397.1,246.9 410.2,246.9 423.2,259.1 436.3,260.0 449.4,260.0 462.5,254.7 475.5,239.8 488.6,255.6 501.7,257.4 514.8,259.1 527.8,260.0 540.9,238.1 554.0,246.9 567.1,226.7 580.2,250.4 593.2,234.6 606.3,232.8 619.4,247.7 632.5,223.2 645.5,251.2 658.6,260.0 671.7,256.5 684.8,238.1 697.8,182.9 710.9,201.3 724.0,182.0 724.0,260.0" fill="url(#ag)"/>
  <polyline class="draw" points="44.0,250.4 57.1,250.4 70.2,244.2 83.2,232.0 96.3,239.8 109.4,244.2 122.5,223.2 135.5,232.0 148.6,249.5 161.7,251.2 174.8,236.3 187.8,245.1 200.9,237.2 214.0,234.6 227.1,243.3 240.2,252.1 253.2,246.9 266.3,242.5 279.4,236.3 292.5,232.8 305.5,241.6 318.6,238.1 331.7,239.8 344.8,212.7 357.8,227.6 370.9,232.0 384.0,247.7 397.1,246.9 410.2,246.9 423.2,259.1 436.3,260.0 449.4,260.0 462.5,254.7 475.5,239.8 488.6,255.6 501.7,257.4 514.8,259.1 527.8,260.0 540.9,238.1 554.0,246.9 567.1,226.7 580.2,250.4 593.2,234.6 606.3,232.8 619.4,247.7 632.5,223.2 645.5,251.2 658.6,260.0 671.7,256.5 684.8,238.1 697.8,182.9 710.9,201.3 724.0,182.0" fill="none" stroke="#ff9e64" stroke-width="2.5" stroke-linejoin="round"/>
  <circle class="pk" cx="724.0" cy="182.0" r="4" fill="#ff9e64"/>
  <text x="724" y="170" text-anchor="middle" fill="#c0caf5" font-size="11" font-weight="700">89</text>
</svg>