<svg width="840" height="262" viewBox="0 0 840 262" xmlns="http://www.w3.org/2000/svg" font-family="'Segoe UI',Ubuntu,Helvetica,Arial,sans-serif">
  <style>
    .bar{transform-origin:170px 0;animation:grow 1s ease}
    @keyframes grow{from{transform:scaleX(0)}to{transform:scaleX(1)}}
    .shine{transform:translateX(170px);animation:shine 2.2s linear infinite}
    @keyframes shine{from{transform:translateX(120px)}to{transform:translateX(760px)}}
    .blink{animation:blink 1.6s ease-in-out infinite}
    @keyframes blink{0%,100%{opacity:.35}50%{opacity:1}}
  </style>
  <rect x="1" y="1" width="838" height="260" rx="15" fill="#161a26" stroke="#232842" stroke-width="1.5"/>
  <circle class="blink" cx="44" cy="40" r="5" fill="#7aa2f7"/>
  <text x="60" y="45" fill="#7aa2f7" font-size="17" font-weight="700">Most Used Languages</text>
  
  <text x="34" y="80" fill="#c0caf5" font-size="14">Python</text>
  <rect x="170" y="70" width="560" height="9" rx="4.5" fill="#222638"/>
  <g clip-path="url(#b0)">
    <rect class="bar" style="animation-delay:0.00s" x="170" y="70" width="388.7" height="9" rx="4.5" fill="#7dcfff"/>
    <rect class="shine" style="animation-delay:0.00s" x="0" y="70" width="80" height="9" fill="#ffffff" opacity="0.25"/>
  </g>
  <clipPath id="b0"><rect x="170" y="70" width="388.7" height="9" rx="4.5"/></clipPath>
  <text x="800" y="80" text-anchor="end" fill="#787c99" font-size="13">69%</text>
  <text x="34" y="116" fill="#c0caf5" font-size="14">TypeScript</text>
  <rect x="170" y="106" width="560" height="9" rx="4.5" fill="#222638"/>
  <g clip-path="url(#b1)">
    <rect class="bar" style="animation-delay:0.10s" x="170" y="106" width="149.5" height="9" rx="4.5" fill="#7aa2f7"/>
    <rect class="shine" style="animation-delay:0.10s" x="0" y="106" width="80" height="9" fill="#ffffff" opacity="0.25"/>
  </g>
  <clipPath id="b1"><rect x="170" y="106" width="149.5" height="9" rx="4.5"/></clipPath>
  <text x="800" y="116" text-anchor="end" fill="#787c99" font-size="13">27%</text>
  <text x="34" y="152" fill="#c0caf5" font-size="14">Java</text>
  <rect x="170" y="142" width="560" height="9" rx="4.5" fill="#222638"/>
  <g clip-path="url(#b2)">
    <rect class="bar" style="animation-delay:0.20s" x="170" y="142" width="9.9" height="9" rx="4.5" fill="#ff9e64"/>
    <rect class="shine" style="animation-delay:0.20s" x="0" y="142" width="80" height="9" fill="#ffffff" opacity="0.25"/>
  </g>
  <clipPath id="b2"><rect x="170" y="142" width="9.9" height="9" rx="4.5"/></clipPath>
  <text x="800" y="152" text-anchor="end" fill="#787c99" font-size="13">2%</text>
  <text x="34" y="188" fill="#c0caf5" font-size="14">HTML</text>
  <rect x="170" y="178" width="560" height="9" rx="4.5" fill="#222638"/>
  <g clip-path="url(#b3)">
    <rect class="bar" style="animation-delay:0.30s" x="170" y="178" width="8.7" height="9" rx="4.5" fill="#f7768e"/>
    <rect class="shine" style="animation-delay:0.30s" x="0" y="178" width="80" height="9" fill="#ffffff" opacity="0.25"/>
  </g>
  <clipPath id="b3"><rect x="170" y="178" width="8.7" height="9" rx="4.5"/></clipPath>
  <text x="800" y="188" text-anchor="end" fill="#787c99" font-size="13">2%</text>
  <text x="34" y="224" fill="#c0caf5" font-size="14">JavaScript</text>
  <rect x="170" y="214" width="560" height="9" rx="4.5" fill="#222638"/>
  <g clip-path="url(#b4)">
    <rect class="bar" style="animation-delay:0.40s" x="170" y="214" width="3.2" height="9" rx="4.5" fill="#ff9e64"/>
    <rect class="shine" style="animation-delay:0.40s" x="0" y="214" width="80" height="9" fill="#ffffff" opacity="0.25"/>
  </g>
  <clipPath id="b4"><rect x="170" y="214" width="3.2" height="9" rx="4.5"/></clipPath>
  <text x="800" y="224" text-anchor="end" fill="#787c99" font-size="13">1%</text>
</svg>